/vscmnt/brussel_pixiu_data/_data_brussel/112/vsc11236/PredSimResults/SUBJ04opt3D/worker_15.mot
version=1
nRows=5
nColumns=50
inDegrees=yes
endheader
                time	         pelvis_tilt	         pelvis_list	     pelvis_rotation	           pelvis_tx	           pelvis_ty	           pelvis_tz	       hip_flexion_r	     hip_adduction_r	      hip_rotation_r	        knee_angle_r	       ankle_angle_r	         mtp_angle_r	       hip_flexion_l	     hip_adduction_l	      hip_rotation_l	        knee_angle_l	       ankle_angle_l	         mtp_angle_l	    lumbar_extension	      lumbar_bending	     lumbar_rotation	 ercspn_r/activation	 intobl_r/activation	 extobl_r/activation	    abd_r/activation	    add_r/activation	hamstrings_r/activation	bifemsh_r/activation	glut_max_r/activation	iliopsoas_r/activation	rect_fem_r/activation	  vasti_r/activation	gastroc_r/activation	 soleus_r/activation	tib_ant_r/activation	 ercspn_l/activation	 intobl_l/activation	 extobl_l/activation	    abd_l/activation	    add_l/activation	hamstrings_l/activation	bifemsh_l/activation	glut_max_l/activation	iliopsoas_l/activation	rect_fem_l/activation	  vasti_l/activation	gastroc_l/activation	 soleus_l/activation	tib_ant_l/activation	
          0.00000000	        -17.42931644	         -6.69901142	         10.46246421	          0.00000000	          0.84583513	         -0.02230873	         46.81722453	         -0.16913062	          2.85436302	        -18.88428517	          0.82590088	          0.20154571	          1.57709811	         -4.91151672	         10.44737838	        -24.21141750	          1.53110805	         44.49981029	         -0.54142923	          4.39416326	         -1.27973994	          0.23381857	          0.04674390	          0.00999999	          0.02782185	          0.35869937	          0.08611973	          0.26371571	          0.06205714	          0.12086184	          0.04053514	          0.01018091	          0.09744160	          0.00999999	          0.40143862	          0.21643486	          0.35993514	          0.00999999	          0.08192191	          0.03225024	          0.08016060	          0.38264552	          0.04294883	          0.69115824	          0.01122149	          0.00999999	          0.22137976	          0.25658334	          0.02138577	
          0.02000000	        -16.91604173	         -6.46459800	         10.90894597	          0.05064497	          0.84230650	         -0.01966286	         46.48148188	          0.69999467	          3.03843423	        -25.55141696	          2.20110528	          0.19963784	          2.28897261	         -4.95467965	          8.78900758	        -31.42183587	         -2.91912278	         44.26533453	          0.21344585	          4.13441494	         -1.07514402	          0.17536393	          0.03505793	          0.00999999	          0.18791803	          0.42092351	          0.08315492	          0.19778678	          0.46868529	          0.09064638	          0.03040135	          0.00999999	          0.07308120	          0.00999999	          0.30107897	          0.26726905	          0.26995135	          0.00999999	          0.06144143	          0.02418768	          0.06012045	          0.28698414	          0.03221162	          0.84607603	          0.00999999	          0.00999999	          0.16603482	          0.19243751	          0.01603933	
          0.04000000	        -16.34618339	         -6.23462061	         11.30233382	          0.09998967	          0.83938152	         -0.01642908	         46.08575522	          1.59174220	          3.10538012	        -32.50769468	          6.48035652	          2.00144079	          4.98916926	         -5.23575349	          6.33253385	        -41.02005698	         -9.37089164	         41.03968273	          0.74407241	          3.74412582	         -0.57204319	          0.13152295	          0.02629345	          0.00999999	          0.44331731	          0.31569263	          0.09018177	          0.14834009	          0.57393427	          0.06798478	          0.02280101	          0.32883782	          0.16320042	          0.24724306	          0.22580922	          0.33258974	          0.20246351	          0.00999999	          0.04608108	          0.01814076	          0.04509034	          0.21523811	          0.02415871	          0.63455702	          0.23851022	          0.00999999	          0.12452612	          0.14432813	          0.01202949	
          0.06000000	        -15.82908845	         -5.95702710	         11.64363722	          0.14720210	          0.83960128	         -0.01298023	         44.18207336	          2.36297465	          3.14956053	        -36.38016934	         10.02040056	          5.57080027	          9.03042291	         -6.18993871	          2.96312380	        -50.25720575	        -19.06814454	         34.34069593	          1.04389019	          3.20040665	          0.10706253	          0.09864221	          0.01972008	          0.00999999	          0.56642677	          0.23676947	          0.12060486	          0.11125507	          0.43045070	          0.05098859	          0.01710076	          0.68469527	          0.24931157	          0.41373912	          0.16935692	          0.35304160	          0.15184763	          0.22640148	          0.03456081	          0.01360557	          0.03381775	          0.36227411	          0.01811904	          0.47591776	          0.43532261	          0.00999999	          0.09339459	          0.10824610	          0.00999999	
          0.08000000	        -15.41888895	         -5.64291779	         11.87985826	          0.19171449	          0.84464600	         -0.00950398	         40.69613073	          3.00587995	          3.22601726	        -36.69716139	         11.96175321	          9.55878821	         13.63927960	         -7.74472256	         -0.81048759	        -57.21419144	        -28.95315942	         26.51333251	          1.06725403	          2.53712189	          0.88155676	          0.07398166	          0.01479006	          0.00999999	          0.51237686	          0.17757710	          0.13111478	          0.08344130	          0.32283803	          0.03824144	          0.01282557	          0.51352145	          0.34624401	          0.54397881	          0.12701769	          0.29820279	          0.16455129	          0.19642025	          0.02592060	          0.01020418	          0.02536332	          0.57591959	          0.01358928	          0.35693832	          0.49680296	          0.00999999	          0.07544886	          0.08118457	          0.00999999	
